<?xml version="1.0" encoding="UTF-8" standalone="no"?>
<!-- Created with Inkscape (http://www.inkscape.org/) -->

<svg
   xmlns:dc="http://purl.org/dc/elements/1.1/"
   xmlns:cc="http://creativecommons.org/ns#"
   xmlns:rdf="http://www.w3.org/1999/02/22-rdf-syntax-ns#"
   xmlns:svg="http://www.w3.org/2000/svg"
   xmlns="http://www.w3.org/2000/svg"
   xmlns:sodipodi="http://sodipodi.sourceforge.net/DTD/sodipodi-0.dtd"
   xmlns:inkscape="http://www.inkscape.org/namespaces/inkscape"
   width="24"
   height="24"
   viewBox="0 0 6.3499999 6.3500002"
   version="1.1"
   id="svg8"
   inkscape:version="0.92.2 5c3e80d, 2017-08-06"
   sodipodi:docname="ic_search.svg">
  <defs
     id="defs2" />
  <sodipodi:namedview
     id="base"
     pagecolor="#ffffff"
     bordercolor="#666666"
     borderopacity="1.0"
     inkscape:pageopacity="0.0"
     inkscape:pageshadow="2"
     inkscape:zoom="11.313708"
     inkscape:cx="18.62531"
     inkscape:cy="10.501189"
     inkscape:document-units="mm"
     inkscape:current-layer="layer1"
     showgrid="false"
     units="px"
     inkscape:window-width="1440"
     inkscape:window-height="786"
     inkscape:window-x="4"
     inkscape:window-y="0"
     inkscape:window-maximized="0" />
  <metadata
     id="metadata5">
    <rdf:RDF>
      <cc:Work
         rdf:about="">
        <dc:format>image/svg+xml</dc:format>
        <dc:type
           rdf:resource="http://purl.org/dc/dcmitype/StillImage" />
        <dc:title></dc:title>
      </cc:Work>
    </rdf:RDF>
  </metadata>
  <g
     inkscape:label="Layer 1"
     inkscape:groupmode="layer"
     id="layer1"
     transform="translate(0,-290.64998)">
    <g
       id="g4636"
       transform="matrix(0.1154583,0,0,0.11147,-0.11361098,290.64998)"
       style="fill:#ffffff">
      <path
         id="path4581"
         d="M 55.146,51.887 41.588,37.786 c 3.486,-4.144 5.396,-9.358 5.396,-14.786 0,-12.682 -10.318,-23 -23,-23 -12.682,0 -23,10.318 -23,23 0,12.682 10.318,23 23,23 4.761,0 9.298,-1.436 13.177,-4.162 l 13.661,14.208 c 0.571,0.593 1.339,0.92 2.162,0.92 0.779,0 1.518,-0.297 2.079,-0.837 1.192,-1.147 1.23,-3.049 0.083,-4.242 z M 23.984,6 c 9.374,0 17,7.626 17,17 0,9.374 -7.626,17 -17,17 -9.374,0 -17,-7.626 -17,-17 0,-9.374 7.626,-17 17,-17 z"
         inkscape:connector-curvature="0"
         style="fill:#ffffff" />
      <g
         id="g4583"
         style="fill:#ffffff" />
      <g
         id="g4585"
         style="fill:#ffffff" />
      <g
         id="g4587"
         style="fill:#ffffff" />
      <g
         id="g4589"
         style="fill:#ffffff" />
      <g
         id="g4591"
         style="fill:#ffffff" />
      <g
         id="g4593"
         style="fill:#ffffff" />
      <g
         id="g4595"
         style="fill:#ffffff" />
      <g
         id="g4597"
         style="fill:#ffffff" />
      <g
         id="g4599"
         style="fill:#ffffff" />
      <g
         id="g4601"
         style="fill:#ffffff" />
      <g
         id="g4603"
         style="fill:#ffffff" />
      <g
         id="g4605"
         style="fill:#ffffff" />
      <g
         id="g4607"
         style="fill:#ffffff" />
      <g
         id="g4609"
         style="fill:#ffffff" />
      <g
         id="g4611"
         style="fill:#ffffff" />
    </g>
  </g>
</svg>
